<svg xmlns="http://www.w3.org/2000/svg" viewBox="0 0 48 48">
  <path fill="#EA4335" d="M24 9.5c3.3 0 6.2 1.2 8.5 3.2l6.3-6.3C34.3 2.3 29.5 0 24 0 14.8 0 6.8 5.8 2.8 14.2l7.3 5.7C12 13.5 17.5 9.5 24 9.5z"/>
  <path fill="#4285F4" d="M46.1 24.5c0-1.7-.1-3.3-.4-4.9H24v9.3h12.5c-.5 2.6-2 4.8-4.1 6.3l6.5 5.1c3.8-3.5 6-8.7 6-15.8z"/>
  <path fill="#FBBC05" d="M10.1 28.1c-1-2.6-1-5.5 0-8.1l-7.3-5.7C.8 18.4 0 21.1 0 24s.8 5.6 2.8 8.1l7.3-5.7z"/>
  <path fill="#34A853" d="M24 48c6.5 0 12-2.1 16-5.7l-6.5-5.1c-2 1.4-4.5 2.3-7.5 2.3-6.5 0-12-4.3-14-10.2l-7.3 5.7C6.8 42.2 14.8 48 24 48z"/>
</svg>
