<svg width="44" height="24" viewBox="0 0 44 24" fill="none" xmlns="http://www.w3.org/2000/svg">
<g clip-path="url(#clip0_2098_8273)">
<rect width="44" height="24" fill="white"/>
<path fill-rule="evenodd" clip-rule="evenodd" d="M0 1.8465H44V0H0V1.8465ZM0 5.5395H44V3.6945H0V5.5395ZM0 9.234H44V7.383H0V9.234ZM0 12.924H44V11.0745H0V12.924ZM0 16.617H44V14.7705H0V16.617ZM0 20.3055H44V18.459H0V20.3055ZM0 24H44V22.1535H0V24Z" fill="#B22234"/>
<path fill-rule="evenodd" clip-rule="evenodd" d="M0 3.82006H44V2H0V3.82006ZM0 7.4528H44V5.63717H0V7.4528ZM0 11.0885H44V9.27138H0V11.0885ZM0 14.7286H44V12.9115H0V14.7286ZM0 18.3643H44V16.5472H0V18.3643ZM0 22H44V20.1829H0V22Z" fill="white"/>
<path fill-rule="evenodd" clip-rule="evenodd" d="M0 13H18V0H0V13Z" fill="#192F5D"/>
<path fill-rule="evenodd" clip-rule="evenodd" d="M16.1648 1.48047H15.6446L16.0651 1.77724L15.9004 2.25771L16.3223 1.96236L16.7414 2.26336L16.5795 1.77724L17 1.48047H16.4798L16.3223 1L16.1648 1.48047ZM13.233 1.48047H12.7171L13.1333 1.77724L12.9744 2.25771L13.3905 1.96236L13.811 2.26336L13.652 1.77724L14.0667 1.48047H13.5538L13.3905 1L13.233 1.48047ZM10.3026 1.48047H9.78678L10.2029 1.77724L10.0396 2.25771L10.4616 1.96236L10.8792 2.26336L10.7188 1.77724L11.1378 1.48047H10.6176L10.4645 1L10.3026 1.48047ZM7.37081 1.48047H6.85352L7.27111 1.77724L7.11361 2.25771L7.52831 1.96236L7.95024 2.26336L7.79274 1.77724L8.206 1.48047H7.69737L7.53554 1L7.37081 1.48047ZM4.44622 1.48047H3.93182L4.34652 1.77724L4.18902 2.25771L4.6095 1.96236L5.0242 2.26336L4.8667 1.77724L5.28574 1.48047H4.76556L4.6095 1L4.44622 1.48047ZM1.52307 1.48047H1L1.42048 1.77724L1.26298 2.25771L1.67913 1.96236L2.09817 2.26336L1.93922 1.77724L2.35537 1.48047H1.84096L1.67913 1L1.52307 1.48047ZM14.691 2.70003H14.178L14.5927 2.99538L14.4338 3.47726L14.8542 3.18191L15.2704 3.47726L15.1114 2.99538L15.5319 2.70003H15.0161L14.8586 2.21814L14.691 2.70003ZM11.775 2.70003H11.252L11.671 2.99538L11.5135 3.47726L11.9282 3.18191L12.3487 3.47726L12.1854 2.99538L12.6059 2.70003H12.09L11.9282 2.21814L11.775 2.70003ZM8.83889 2.70003H8.32448L8.73919 2.99538L8.58169 3.47726L9.00217 3.18191L9.41831 3.47726L9.25793 2.99538L9.67985 2.70003H9.16111L9.00217 2.21814L8.83889 2.70003ZM5.91285 2.70003H5.39267L5.81459 2.99538L5.65131 3.47726L6.0718 3.18191L6.49228 3.47726L6.32755 2.99538L6.74804 2.70003H6.23508L6.0718 2.21814L5.91285 2.70003ZM2.98681 2.70003H2.47241L2.87989 2.99538L2.73539 3.47726L3.15298 3.18191L3.55902 3.47726L3.40585 2.99538L3.82778 2.70003H3.30471L3.14432 2.21814L2.98681 2.70003ZM16.1648 3.91534H15.6446L16.0651 4.21069L15.9004 4.6954L16.3223 4.39581L16.7414 4.6954L16.5795 4.21493L17 3.91817H16.4798L16.3223 3.43345L16.1648 3.91534ZM13.233 3.91534H12.7171L13.1333 4.21069L12.9744 4.6954L13.3905 4.39581L13.811 4.6954L13.652 4.21493L14.0667 3.91817H13.5538L13.3905 3.43345L13.233 3.91534ZM10.2968 3.91534H9.78389L10.2029 4.21069L10.0396 4.6954L10.4645 4.39581L10.8835 4.6954L10.7231 4.21493L11.1407 3.91817H10.622L10.4645 3.43345L10.2968 3.91534ZM7.37081 3.91534H6.85352L7.27111 4.21069L7.11361 4.6954L7.52831 4.39581L7.95024 4.6954L7.79274 4.21493L8.206 3.91817H7.69737L7.53554 3.43345L7.37081 3.91534ZM4.44622 3.91534H3.93182L4.34652 4.21069L4.18902 4.6954L4.6095 4.39581L5.0242 4.6954L4.8667 4.21493L5.28574 3.91817H4.76556L4.6095 3.43345L4.44622 3.91534ZM1.52307 3.91817H1L1.42048 4.21493L1.26298 4.69964L1.67913 4.40005L2.09817 4.69964L1.93922 4.21917L2.35537 3.92382H1.84096L1.67913 3.43345L1.52307 3.91817ZM14.6967 5.12924H14.1823L14.597 5.42459L14.4338 5.91213L14.8542 5.61395L15.2704 5.91495L15.1129 5.42883L15.5319 5.13348H15.0161L14.8586 4.65159L14.6967 5.12924ZM11.775 5.12924H11.252L11.671 5.42459L11.5135 5.90647L11.9282 5.60971L12.3487 5.91213L12.1912 5.42459L12.6059 5.13348H12.09L11.9282 4.65159L11.775 5.12924ZM8.83889 5.12924H8.32448L8.73919 5.42459L8.58169 5.90647L9.00217 5.60971L9.41831 5.91213L9.25793 5.42459L9.67985 5.13348H9.16111L9.00217 4.65159L8.83889 5.12924ZM5.91285 5.12924H5.39267L5.81459 5.42459L5.65131 5.90647L6.0718 5.60971L6.49228 5.91213L6.32755 5.42459L6.74804 5.13348H6.23508L6.0718 4.65159L5.91285 5.12924ZM2.98392 5.12924H2.46663L2.88278 5.42459L2.72528 5.90647L3.14432 5.60971L3.56046 5.91213L3.40152 5.42459L3.82778 5.13348H3.30471L3.14432 4.65159L2.98392 5.12924ZM16.1648 6.35162H15.6446L16.0651 6.64979L15.9004 7.12885L16.3223 6.8335L16.7414 7.13309L16.5795 6.64979L17 6.35162H16.4798L16.3223 5.87115L16.1648 6.35162ZM13.233 6.35727H12.7171L13.1333 6.65262L12.9744 7.13309L13.3905 6.83774L13.811 7.13309L13.652 6.64979L14.0667 6.35162H13.5538L13.3905 5.87115L13.233 6.35727ZM10.2968 6.35162H9.78389L10.2029 6.64979L10.0396 7.12885L10.4645 6.83774L10.8835 7.13309L10.7231 6.64979L11.1407 6.35162H10.622L10.4645 5.87115L10.2968 6.35162ZM7.37081 6.35727H6.85352L7.27111 6.65262L7.11361 7.13309L7.52831 6.83774L7.95024 7.13309L7.79274 6.64979L8.206 6.35162H7.69737L7.53554 5.87115L7.37081 6.35727ZM4.44622 6.35727H3.93182L4.34652 6.65262L4.18902 7.13309L4.6095 6.83774L5.0242 7.12885L4.8667 6.64979L5.28574 6.35162H4.76556L4.6095 5.87115L4.44622 6.35727ZM1.52307 6.35727H1L1.42048 6.65262L1.26298 7.13309L1.67913 6.83774L2.09817 7.13309L1.93922 6.64979L2.35537 6.35162H1.84096L1.67913 5.87115L1.52307 6.35727ZM14.691 7.56693H14.178L14.5927 7.86228L14.4338 8.34841L14.8542 8.04741L15.2704 8.34841L15.1129 7.86652L15.5319 7.57117H15.0161L14.8586 7.08929L14.691 7.56693ZM11.775 7.56693H11.252L11.671 7.86228L11.5135 8.34841L11.9282 8.04741L12.3487 8.34841L12.1912 7.86652L12.6059 7.57117H12.09L11.9282 7.08929L11.775 7.56693ZM8.83889 7.56693H8.32448L8.73919 7.86228L8.58169 8.34841L9.00217 8.04741L9.41831 8.34841L9.25793 7.86652L9.67985 7.57117H9.16111L9.00217 7.08929L8.83889 7.56693ZM5.91285 7.56693H5.39267L5.81459 7.86228L5.65131 8.34841L6.0718 8.04741L6.49228 8.34841L6.32755 7.86652L6.74804 7.57117H6.23508L6.0718 7.08929L5.91285 7.56693ZM2.98681 7.56693H2.47241L2.88856 7.86228L2.73106 8.34841L3.14865 8.04741L3.5648 8.34841L3.40585 7.86652L3.82778 7.57117H3.30471L3.14432 7.08929L2.98681 7.56693ZM16.1648 8.78507H15.6446L16.0651 9.08183L15.9004 9.56231L16.3223 9.26696L16.7414 9.56231L16.5795 9.08607L17 8.78931H16.4798L16.3223 8.3046L16.1648 8.78507ZM13.233 8.78507H12.7171L13.1333 9.08183L12.9744 9.56231L13.3905 9.26696L13.811 9.56231L13.652 9.08607L14.0667 8.78931H13.5538L13.3905 8.3046L13.233 8.78507ZM10.2968 8.78507H9.78389L10.2029 9.08183L10.0396 9.56231L10.4645 9.26696L10.8835 9.56231L10.7231 9.08607L11.1407 8.78931H10.622L10.4645 8.3046L10.2968 8.78507ZM7.37081 8.78507H6.85352L7.27111 9.08183L7.11361 9.56231L7.52831 9.26696L7.95024 9.56231L7.79274 9.08607L8.206 8.78931H7.69737L7.53554 8.3046L7.37081 8.78507ZM4.44622 8.78507H3.93182L4.35085 9.08183L4.18902 9.56231L4.6095 9.26696L5.02709 9.56231L4.8667 9.08607L5.28574 8.78931H4.76556L4.6095 8.3046L4.44622 8.78507ZM1.52307 8.78507H1L1.42048 9.08183L1.26298 9.56231L1.67913 9.26696L2.09817 9.56231L1.93922 9.08607L2.35537 8.78931H1.84096L1.67913 8.3046L1.52307 8.78507ZM14.691 10.0046H14.178L14.5927 10.3014L14.4338 10.7819L14.8542 10.4851L15.2704 10.7861L15.1129 10.3014L15.5319 10.0046H15.0161L14.8586 9.52274L14.691 10.0046ZM11.775 10.0046H11.252L11.671 10.3014L11.5135 10.7819L11.9282 10.4851L12.3487 10.7861L12.1912 10.3014L12.6059 10.0046H12.09L11.9282 9.52274L11.775 10.0046ZM8.83889 10.0046H8.32448L8.73919 10.3014L8.58169 10.7819L9.00217 10.4851L9.41831 10.7861L9.25793 10.3014L9.67985 10.0046H9.16111L9.00217 9.52274L8.83889 10.0046ZM5.91285 10.0046H5.39267L5.81459 10.3014L5.65131 10.7819L6.0718 10.4851L6.49228 10.7861L6.32755 10.3014L6.74804 10.0046H6.23508L6.0718 9.52274L5.91285 10.0046ZM2.98681 10.0046H2.47241L2.88856 10.3014L2.73106 10.7819L3.14865 10.4851L3.5648 10.7861L3.40585 10.3014L3.82778 10.0046H3.30471L3.14432 9.52274L2.98681 10.0046ZM16.1648 11.2185H15.6446L16.0651 11.5139L15.9004 12L16.3223 11.7047L16.7414 12L16.5795 11.5181L17 11.2228H16.4798L16.3223 10.7409L16.1648 11.2185ZM13.233 11.2185H12.7171L13.1333 11.5139L12.9744 12L13.3905 11.7047L13.811 12L13.652 11.5181L14.0667 11.2228H13.5538L13.3905 10.7409L13.233 11.2185ZM10.3026 11.2185H9.78678L10.2029 11.5139L10.0396 12L10.4616 11.7004L10.8792 11.9958L10.7188 11.5139L11.1378 11.2185H10.6176L10.4645 10.7409L10.3026 11.2185ZM7.38093 11.2185H6.86074L7.28267 11.5139L7.12228 12L7.53843 11.7047L7.95746 12L7.79996 11.5181L8.206 11.2228H7.69737L7.53554 10.7409L7.38093 11.2185ZM4.44622 11.2185H3.93182L4.35085 11.5096L4.18902 11.9958L4.6095 11.7004L5.02709 11.9958L4.8667 11.5139L5.28574 11.2185H4.76556L4.6095 10.7409L4.44622 11.2185ZM1.52307 11.2185H1L1.42048 11.5139L1.26298 12L1.67913 11.7047L2.09817 12L1.93922 11.5181L2.35537 11.2228H1.84096L1.67913 10.7409L1.52307 11.2185Z" fill="white"/>
</g>
<defs>
<clipPath id="clip0_2098_8273">
<rect width="44" height="24" fill="white"/>
</clipPath>
</defs>
</svg>
